<?xml version="1.0" standalone="no"?>
<!DOCTYPE svg PUBLIC "-//W3C//DTD SVG 20010904//EN"
 "http://www.w3.org/TR/2001/REC-SVG-20010904/DTD/svg10.dtd">
<svg version="1.0" xmlns="http://www.w3.org/2000/svg"
 width="500.000000pt" height="500.000000pt" viewBox="0 0 500.000000 500.000000"
 preserveAspectRatio="xMidYMid meet">

<g transform="translate(0.000000,500.000000) scale(0.100000,-0.100000)"
fill="#000000" stroke="none">
<path d="M2470 4200 c-8 -5 -35 -10 -60 -10 -25 0 -71 -12 -105 -26 -57 -24
-143 -59 -175 -70 -13 -4 -13 -6 0 -15 12 -7 7 -16 -28 -45 -55 -47 -65 -66
-67 -140 -3 -58 -1 -62 21 -67 12 -2 27 0 33 6 18 18 30 -4 37 -64 l7 -61 71
5 c54 4 62 3 31 -3 -22 -5 -54 -9 -71 -9 -49 -1 -59 -22 -36 -74 11 -24 25
-48 31 -51 6 -4 11 -17 11 -28 0 -19 4 -20 60 -15 43 4 62 1 71 -9 27 -33 133
-20 156 19 5 9 34 16 73 20 74 6 100 27 100 81 0 43 10 54 50 57 49 4 63 -7
58 -47 -2 -21 0 -33 6 -31 6 2 11 24 11 48 0 41 2 44 27 44 21 -1 24 2 16 12
-15 18 -45 16 -57 -4 -6 -10 -11 -14 -11 -9 0 5 8 18 17 28 13 14 18 43 21
117 3 85 1 104 -17 139 -12 23 -21 48 -21 57 0 15 -5 17 -45 19 -12 1 -22 12
-28 31 -9 30 -63 73 -121 94 -34 13 -47 13 -66 1z m47 -216 c4 -11 8 -12 13
-4 9 14 36 -21 75 -100 15 -30 36 -67 47 -82 l19 -28 -68 0 c-72 0 -197 -23
-217 -39 -15 -12 -241 -2 -228 11 5 5 38 11 75 15 67 6 80 16 55 41 -16 16
-81 15 -123 -2 -35 -15 -35 -15 -35 12 0 21 11 36 48 64 115 88 322 156 339
112z m167 -230 c26 -10 18 -24 -13 -24 -17 0 -33 -4 -36 -10 -9 -15 -25 -12
-25 5 0 17 -3 18 -80 17 l-55 0 50 7 c67 10 140 12 159 5z m-230 -21 c-12 -2
-30 -13 -40 -24 -10 -11 -30 -19 -49 -19 -17 0 -35 -4 -41 -10 -6 -6 -16 -3
-27 10 -16 19 -15 19 26 14 33 -5 51 -1 77 15 19 11 44 20 55 20 18 -2 18 -2
-1 -6z m146 -51 c0 -66 -14 -82 -85 -91 -47 -7 -64 -6 -77 6 -18 16 -32 57
-16 47 7 -5 9 2 4 19 -4 16 -1 29 6 33 22 14 60 13 75 -2 18 -17 38 -14 38 7
0 17 15 29 38 29 14 0 17 -9 17 -48z m-363 -6 c-1 -6 7 -11 18 -11 11 0 19 6
18 13 -4 17 8 15 23 -5 19 -26 17 -88 -3 -104 -9 -8 -14 -9 -10 -3 4 7 -11 9
-46 6 -59 -5 -71 4 -79 53 -3 17 -9 38 -13 47 -6 16 -1 18 44 17 31 -1 49 -6
48 -13z m147 -12 c9 -8 16 -21 16 -28 0 -7 11 -30 25 -50 30 -45 30 -46 5 -46
-11 0 -29 -5 -39 -11 -11 -8 -29 -9 -47 -4 -16 5 -32 8 -35 7 -3 0 0 22 8 51
7 28 13 59 13 68 0 15 12 26 32 28 4 1 14 -6 22 -15z m227 -47 c-13 -32 -47
-47 -104 -46 -41 1 -40 2 13 9 58 9 89 34 91 74 1 14 3 16 6 5 2 -8 -1 -28 -6
-42z"/>
<path d="M2440 3831 c-8 -6 -18 -7 -22 -5 -4 3 -8 -9 -8 -26 0 -28 2 -31 23
-23 12 4 52 8 90 8 57 0 67 3 67 17 0 10 -9 22 -19 28 -24 12 -111 13 -131 1z"/>
<path d="M2505 3660 c-8 -13 15 -13 35 0 12 8 11 10 -7 10 -12 0 -25 -4 -28
-10z"/>
<path d="M2238 3633 c6 -2 18 -2 25 0 6 3 1 5 -13 5 -14 0 -19 -2 -12 -5z"/>
<path d="M2653 3573 c-23 -35 -30 -59 -14 -49 10 7 44 76 39 81 -1 1 -13 -13
-25 -32z"/>
<path d="M2700 3578 c0 -16 5 -28 10 -28 13 0 13 20 0 40 -8 12 -10 9 -10 -12z"/>
<path d="M2552 3514 c4 -23 -69 -68 -142 -89 -53 -15 -54 -15 -12 -11 42 4
125 42 170 77 l23 18 -21 11 c-18 10 -21 9 -18 -6z"/>
<path d="M2236 3474 c-4 -10 -4 -15 0 -11 4 4 14 1 23 -6 23 -19 68 -37 75
-30 13 14 4 21 -34 27 -21 3 -43 13 -48 22 -8 14 -10 14 -16 -2z"/>
<path d="M2440 3384 c-31 -17 -74 -18 -103 -2 -20 10 -21 10 -9 -5 20 -24 66
-30 106 -13 20 8 36 20 36 25 0 6 -1 11 -2 10 -2 -1 -14 -7 -28 -15z"/>
<path d="M2631 3366 c-8 -9 -48 -39 -90 -67 -75 -51 -77 -51 -138 -46 -41 3
-63 1 -66 -7 -7 -20 11 -78 33 -108 26 -36 4 -39 -30 -3 -18 19 -22 31 -17 60
3 19 2 35 -3 35 -20 0 -22 -81 -6 -210 18 -150 21 -394 6 -435 -7 -17 -16 -25
-28 -23 -13 2 -19 18 -24 63 -4 33 -16 96 -27 140 l-20 80 30 46 c34 54 35 59
9 59 -45 0 -48 70 -9 175 11 28 19 50 19 51 0 0 -7 1 -15 1 -8 0 -13 -2 -10
-5 2 -2 -9 -31 -26 -63 -24 -49 -59 -154 -59 -180 0 -4 14 -12 30 -19 17 -7
30 -16 30 -21 0 -12 -11 -11 -40 6 -37 21 -56 18 -91 -13 -24 -21 -32 -38 -36
-75 -7 -62 -28 -56 -27 8 0 42 5 52 37 81 20 19 46 34 57 34 13 0 21 9 25 28
6 25 32 102 51 147 6 17 5 18 -7 8 -8 -6 -27 -45 -43 -86 -26 -67 -32 -76 -66
-90 -48 -19 -71 -53 -81 -125 -8 -56 -8 -56 -5 18 2 41 1 69 -1 63 -9 -25 -25
-12 -49 40 -13 28 -21 41 -18 27 8 -31 34 -89 43 -95 4 -2 5 -20 3 -40 -4 -36
-5 -36 -26 -18 -14 12 -12 8 5 -12 47 -53 50 -67 22 -82 -14 -7 -36 -13 -49
-13 -28 0 -42 -25 -27 -49 7 -11 7 -22 -1 -34 -8 -13 -7 -24 6 -47 9 -17 13
-30 8 -30 -5 0 -12 -11 -16 -24 -7 -29 22 -90 39 -82 85 37 155 59 274 83 110
23 140 27 131 16 -10 -12 -5 -12 26 1 55 23 75 21 70 -6 -5 -23 -4 -23 5 -2
11 24 45 37 135 53 91 16 163 14 170 -5 12 -31 6 -44 -21 -45 -22 -1 -24 -3
-7 -6 38 -7 16 -36 -60 -80 -86 -50 -137 -56 -181 -21 l-28 21 13 -22 c7 -15
8 -21 1 -17 -6 4 -17 28 -25 54 l-15 47 0 -40 c-1 -22 6 -51 15 -64 16 -22 15
-24 -12 -46 -16 -13 -40 -30 -53 -37 -21 -11 -25 -10 -42 11 -13 15 -19 18
-19 9 0 -18 28 -43 58 -53 19 -5 21 -9 11 -22 -27 -32 -166 -88 -282 -114 -37
-8 -53 -15 -45 -21 9 -5 9 -8 1 -8 -6 0 -9 -9 -6 -21 4 -14 11 -18 22 -13 73
31 172 37 187 12 4 -6 6 -113 5 -238 l-2 -228 41 -4 c22 -2 45 -1 49 2 11 6
17 319 6 342 -4 10 -4 37 -1 60 3 24 5 47 5 52 1 5 8 3 16 -4 12 -10 15 -49
15 -231 0 -217 0 -219 21 -219 20 0 21 3 15 61 -12 101 -26 281 -26 330 l0 46
203 7 c260 8 268 10 265 47 -1 17 -8 29 -16 29 -11 0 -12 -3 -3 -14 10 -12 2
-15 -46 -20 -68 -6 -218 -10 -321 -8 -67 2 -72 3 -58 18 19 18 19 28 5 113
l-10 64 32 34 c41 42 78 44 115 6 l27 -28 -17 28 c-23 37 -17 42 30 22 37 -15
37 -15 20 3 -16 18 -14 21 46 60 107 70 143 73 220 22 l33 -22 -30 26 c-16 15
-47 31 -67 37 -21 5 -38 13 -38 18 0 15 42 46 79 58 l36 13 -35 -4 c-19 -3
-43 -7 -52 -11 -23 -9 -23 13 -3 82 18 62 79 133 134 158 53 24 47 29 -13 11
l-48 -15 7 27 c17 73 79 147 185 225 24 17 24 17 -9 0 -91 -49 -193 -175 -206
-256 -4 -23 -17 -54 -30 -68 -22 -28 -39 -65 -49 -112 -6 -25 -9 -26 -28 -16
-15 8 -56 9 -136 4 l-114 -7 27 44 c63 102 80 149 79 223 -1 39 -3 78 -5 88
-3 14 6 22 36 32 22 8 51 27 64 42 l24 28 -6 -58 c-5 -48 -11 -61 -37 -83 -66
-56 -79 -132 -32 -185 40 -45 90 -45 136 0 68 66 72 138 11 188 l-33 28 8 140
c5 77 10 151 12 164 2 20 -2 25 -24 28 l-28 4 0 -73 c0 -128 -32 -185 -117
-208 -38 -11 -44 -16 -38 -34 26 -91 29 -124 11 -170 -42 -110 -154 -245 -164
-199 -6 25 29 165 64 256 38 99 67 153 135 247 89 124 100 171 50 208 l-30 22
-7 -22 c-3 -11 -47 -61 -97 -110 -72 -72 -95 -88 -116 -86 -26 3 -53 40 -65
89 -6 26 -5 26 37 22 34 -4 56 1 102 23 68 33 150 104 144 123 -4 10 -8 9 -18
-3z m63 -120 c-14 -47 -158 -264 -162 -244 -1 8 19 54 47 104 27 49 57 116 66
149 l17 60 19 -24 c12 -15 17 -31 13 -45z m71 -128 c-4 -68 -11 -141 -16 -163
-7 -32 -7 -25 -4 30 3 39 8 112 12 163 3 50 8 92 11 92 2 0 1 -55 -3 -122z
m-283 -63 c17 -30 17 -32 -3 -73 -12 -23 -24 -42 -28 -42 -10 0 -40 122 -34
138 9 22 46 9 65 -23z m14 -151 c-25 -49 -25 -49 -26 -17 0 18 8 49 17 68 16
33 18 35 26 17 6 -14 2 -33 -17 -68z m-248 10 c-3 -3 -17 1 -32 7 -18 8 -26
20 -26 36 0 24 0 24 31 -7 17 -17 29 -33 27 -36z m131 -4 l0 -35 -15 39 c-7
21 -11 43 -8 48 10 17 24 -14 23 -52z m416 -25 c19 -19 25 -34 24 -67 l-2 -43
-7 44 c-5 32 -15 51 -36 68 -16 12 -23 23 -16 23 7 0 24 -11 37 -25z m-599
-41 c20 -25 27 -193 11 -239 -8 -22 -18 -38 -23 -35 -5 2 -35 32 -67 66 l-57
62 6 58 c4 33 11 67 16 77 19 37 89 44 114 11z m582 14 c32 -32 0 -108 -47
-108 -35 0 -51 17 -51 52 0 51 65 89 98 56z m-347 -158 c-16 -63 -33 -116 -39
-118 -13 -4 10 117 40 211 35 108 34 44 -1 -93z m-388 -33 c29 -19 72 -56 96
-83 l42 -49 -25 -8 c-22 -7 -30 -3 -58 30 -18 21 -54 59 -80 84 -73 69 -61 81
25 26z m-15 -64 l87 -86 -29 -6 c-26 -5 -37 2 -102 70 -72 73 -91 109 -58 109
9 0 55 -39 102 -87z m209 55 c-3 -8 -6 -5 -6 6 -1 11 2 17 5 13 3 -3 4 -12 1
-19z m-254 -102 c26 -30 47 -57 47 -59 0 -3 -9 -7 -20 -10 -16 -4 -30 7 -60
47 -22 29 -40 58 -40 64 0 26 29 9 73 -42z m277 25 c0 -20 -6 -30 -20 -34 -11
-3 -20 -4 -20 -3 0 2 5 17 11 35 14 39 29 40 29 2z m515 -40 c-10 -32 -22 -25
-17 10 3 20 8 27 14 21 6 -6 7 -19 3 -31z m-823 -45 c16 -22 16 -25 -2 -41
-17 -16 -19 -16 -29 4 -15 27 -14 61 2 61 6 0 20 -11 29 -24z m808 10 c0 -3
-4 -8 -10 -11 -5 -3 -10 -1 -10 4 0 6 5 11 10 11 6 0 10 -2 10 -4z m-341 -328
l1 -48 -50 0 c-40 0 -51 4 -60 21 -7 11 -10 22 -8 23 2 1 20 13 41 25 20 13
42 32 49 44 11 21 11 21 19 2 4 -11 8 -41 8 -67z m-129 -28 c0 -5 -17 -10 -37
-9 -31 0 -34 2 -18 9 28 12 55 12 55 0z"/>
<path d="M1875 2740 c-3 -5 -2 -10 4 -10 5 0 13 5 16 10 3 6 2 10 -4 10 -5 0
-13 -4 -16 -10z"/>
<path d="M1790 2495 c-6 -8 -10 -19 -8 -26 2 -6 9 0 16 15 13 29 10 33 -8 11z"/>
<path d="M2932 2467 c24 -24 44 -42 46 -41 9 6 -34 57 -60 70 -24 13 -23 9 14
-29z"/>
<path d="M3060 2501 l-45 -6 33 -8 c37 -8 82 0 82 14 0 5 -6 8 -12 7 -7 0 -33
-4 -58 -7z"/>
<path d="M2025 1860 c-8 -12 2 -17 69 -29 70 -13 86 -7 26 9 -23 6 -53 15 -66
20 -14 6 -26 6 -29 0z"/>
<path d="M2823 1849 c-24 -11 -82 -25 -130 -32 -76 -10 -82 -12 -43 -15 78 -6
230 32 230 57 0 14 -7 13 -57 -10z"/>
<path d="M2651 1648 c-25 -7 -31 -12 -21 -18 13 -8 70 13 70 25 0 6 -8 5 -49
-7z"/>
</g>
</svg>
